<?xml version="1.0" encoding="UTF-8"?>
<!-- Generator: Adobe Illustrator 19.1.0, SVG Export Plug-In . SVG Version: 6.00 Build 0)  -->
<!DOCTYPE svg PUBLIC "-//W3C//DTD SVG 1.1//EN" "http://www.w3.org/Graphics/SVG/1.1/DTD/svg11.dtd">
<svg xmlns="http://www.w3.org/2000/svg" xmlns:xlink="http://www.w3.org/1999/xlink" xmlns:dc="http://purl.org/dc/elements/1.1/" xmlns:cc="http://creativecommons.org/ns#" xmlns:rdf="http://www.w3.org/1999/02/22-rdf-syntax-ns#" version="1.1" id="DESIGNS" x="0px" y="0px" width="64px" height="64px" viewBox="0 0 64 64" style="enable-background:new 0 0 64 64;" xml:space="preserve">
<title property="dc:title">to annoy</title><desc property="dc:description">An icon for "annoy" from the Fandom series on to [icon]. Downloaded from http://www.toicon.com/icons/fandom_annoy by 103.142.140.79 on 2022-02-10. Licensed CC-BY, see http://toicon.com/license/ for details.</desc>
<g>
	<g>
		<path class="fandom_tien" d="M32,7C18.193,7,7,18.193,7,32h50C57,18.193,45.807,7,32,7z" style="fill: #8579A3;"/>
		<path class="fandom_negen" d="M32,57c13.807,0,25-11.193,25-25H7C7,45.807,18.193,57,32,57z" style="fill: #685683;"/>
	</g>
	<g>
		<path class="fandom_acht" d="M56.707,17.684L17.354,57.037c-0.391,0.391-1.024,0.391-1.414,0L6.963,48.06    c-0.391-0.391-0.391-1.024,0-1.414L46.316,7.293c0.391-0.391,1.024-0.391,1.414,0l8.977,8.977    C57.098,16.661,57.098,17.294,56.707,17.684z" style="fill: #6BC4D2;"/>
		<path class="fandom_zeven" d="M29.97,23.639L6.963,46.646c-0.391,0.391-0.391,1.024,0,1.414l8.977,8.977    c0.391,0.391,1.024,0.391,1.414,0L31.702,42.69L29.97,23.639z" style="fill: #508D9B;"/>
		<path class="fandom_veertien" d="M55.816,18.576L25.44,48.951l-5.688-5.688c-0.391-0.391-0.391-1.024,0-1.414l28.961-28.961    c0.391-0.391,1.024-0.391,1.414,0L55.816,18.576z" style="fill: #EFEAE0;"/>
		<path class="fandom_dertien" d="M30.636,30.966L19.752,41.85c-0.391,0.391-0.391,1.024,0,1.414l5.688,5.688l6.262-6.262    L30.636,30.966z" style="fill: #AA9991;"/>
		<path class="fandom_vijftien" d="M23.934,44.248l-3.29-3.29l1.599-1.599l3.29,3.29C26.479,43.595,24.884,45.198,23.934,44.248z     M28.73,39.451l-3.29-3.29l-1.599,1.599l3.29,3.29C28.081,42,29.676,40.398,28.73,39.451z M31.927,36.254l-3.29-3.29l-1.599,1.599    l3.29,3.29C31.279,38.803,32.873,37.2,31.927,36.254z" style="fill: #3A3A3A;"/>
		<path class="fandom_zeventien" d="M35.125,33.057l-3.29-3.29l1.599-1.599l3.29,3.29C37.67,32.404,36.075,34.007,35.125,33.057z" style="fill: #666666;"/>
		<path class="fandom_zeventien" d="M39.921,28.261l-3.29-3.29l-1.599,1.599l3.29,3.29C39.272,30.809,40.867,29.207,39.921,28.261z" style="fill: #666666;"/>
		<path class="fandom_zeventien" d="M44.717,23.464l-3.29-3.29l-1.599,1.599l3.29,3.29C44.068,26.013,45.663,24.411,44.717,23.464z" style="fill: #666666;"/>
		<path class="fandom_zeventien" d="M47.914,20.267l-3.29-3.29l-1.599,1.599l3.29,3.29C47.266,22.816,48.86,21.213,47.914,20.267z" style="fill: #666666;"/>
		<path class="fandom_zeventien" d="M51.112,17.07l-3.29-3.29l-1.599,1.599l3.29,3.29C50.463,19.618,52.058,18.016,51.112,17.07z" style="fill: #666666;"/>
		<path class="fandom_zestien" d="M23.841,50.55l-5.595,5.595l-5.688-5.688c-0.391-0.391-0.391-1.024,0-1.414l4.181-4.181    c0.391-0.391,1.024-0.391,1.414,0L23.841,50.55z" style="fill: #4D4D4D;"/>
		<path class="fandom_vier" d="M48,11.5c0,0.828-0.672,1.5-1.5,1.5S45,12.328,45,11.5s0.672-1.5,1.5-1.5S48,10.672,48,11.5z     M43.5,13c-0.828,0-1.5,0.672-1.5,1.5s0.672,1.5,1.5,1.5s1.5-0.672,1.5-1.5S44.328,13,43.5,13z" style="fill: #FFC865;"/>
		<path class="fandom_drie" d="M29,30.5c0,0.828-0.672,1.5-1.5,1.5S26,31.328,26,30.5s0.672-1.5,1.5-1.5S29,29.672,29,30.5z     M24.5,32c-0.828,0-1.5,0.672-1.5,1.5s0.672,1.5,1.5,1.5s1.5-0.672,1.5-1.5S25.328,32,24.5,32z M21.5,35    c-0.828,0-1.5,0.672-1.5,1.5s0.672,1.5,1.5,1.5s1.5-0.672,1.5-1.5S22.328,35,21.5,35z" style="fill: #BE9148;"/>
	</g>
</g>
<metadata><work rdf:about=""><format>image/svg+xml</format><type rdf:resource="http://purl.org/dc/dcmitype/StillImage"/><license rdf:resource="http://creativecommons.org/licenses/by/4.0/"/><attributionname>Carol Liao</attributionname><attributionurl>http://www.toicon.com/icons/fandom_annoy</attributionurl></work></metadata></svg>
